<svg id="Layer_1" data-name="Layer 1" xmlns="http://www.w3.org/2000/svg" width="45.78" height="48.13"><defs><style>.cls-1{fill:#ff6;stroke:#000;stroke-miterlimit:10;stroke-width:.25px}</style></defs><circle class="cls-1" cx="22.89" cy="24.07" r="13.45"/><path class="cls-1" d="M22.89.28l3.69 7.52h-7.39l3.7-7.52zM8.91 4.83l7.41 3.91-5.98 4.34-1.43-8.25zM.27 16.72l8.29-1.19-2.28 7.03-6.01-5.84zm0 14.69l6.01-5.83 2.28 7.03-8.29-1.2zm8.64 11.9l1.43-8.26 5.98 4.34-7.41 3.92zm13.98 4.54l-3.7-7.52h7.39l-3.69 7.52zm13.98-4.54l-7.41-3.92 5.98-4.34 1.43 8.26zm8.64-11.9l-8.3 1.2 2.28-7.03 6.02 5.83zm0-14.69l-6.02 5.84-2.28-7.03 8.3 1.19zM36.87 4.83l-1.43 8.25-5.98-4.34 7.41-3.91z"/></svg>