<svg id="Layer_1" data-name="Layer 1" xmlns="http://www.w3.org/2000/svg" viewBox="0 0 494.67 494.63"><defs><style>.cls-1{fill:#d1d6e4;}.cls-2{fill:#0f1e25;}</style></defs><title>gear</title><path class="cls-1" d="M480.83,149.77l-9.37,1.49-2.75.44L455.37,154c-12,2-24.46,4.12-36.68,6.41a199.52,199.52,0,0,0-29.64-41.44c5-11.33,9.83-22.88,14.53-34L408,74.52c.47-1.14.84-2.2,1.2-3.24L409.6,70l2.49-6.9-74.85-41.6-5.76,8c-.85,1.17-1.62,2.24-2.38,3.32l-7,10.07c-6.82,9.8-13.86,19.92-20.9,29.82-14-3-28.92-4.62-46.57-5-1.33-3.08-2.57-6.22-3.86-9.5Q249.88,56,249,53.75L230.83,8.46,148.27,31.87l1.29,9.27c.17,1.23.32,2.33.49,3.42q1,6.18,1.93,12.35c1.91,12.29,3.88,25,6,37.5-12.56,9.8-25.19,20-38.58,31.06-10.78-4-21.74-7.93-32.35-11.74l-8-2.86c-3-1.07-6-2.11-9-3.16L59,103.84,20.36,175.93l5.93,4.44,1.47,1.11c1,.78,1.93,1.46,2.85,2.12L40,190.25c10.58,7.51,21.51,15.28,32.36,22.85-2,15.61-3.68,31-5.08,45.77-6.63,2.46-13.28,5-19.72,7.5L46,267l-20.93,8.1L8.68,281.42,31,364.58l7.47-1,1.67-.21c1.24-.15,2.37-.29,3.49-.46l12.12-1.89C69,359,82.64,356.88,96.08,354.66,106.54,368.13,116,380,125,390.79c-2.17,5-4.27,10.06-6.3,15l-1.08,2.61c-3.47,8.35-6.93,16.71-10.43,25.17l-7.3,17.62,76.72,40.61,5.54-7.78c.74-1,1.42-2,2.09-2.94l7.32-10.45c7.09-10.1,14.41-20.53,21.53-30.9,8.36,1,16.82,1.89,25,2.73,5.84.59,11.88,1.21,17.81,1.88,2.26,5.16,4.43,10.47,6.53,15.63q1.57,3.87,3.16,7.73c2.69,6.48,5.39,13,8.14,19.53l6.64,15.9,83.48-22.37-1.21-7.67q-1.15-7.26-2.28-14.44c-2.26-14.33-4.4-27.9-6.68-41.7,7.11-5.12,14.22-10.39,21.12-15.49,5.46-4,11.09-8.21,16.67-12.27,4.25,1.64,8.54,3.46,12.71,5.22l5.23,2.21,40.18,16.76L490,337.49l-8.48-6c-1.47-1.06-2.78-2-4.11-2.92l-8.7-6.08c-9.67-6.76-19.66-13.74-29.56-20.58,3.82-13.66,5.67-28.5,5.64-45.2,10.77-4.63,21.62-9.43,32.13-14.07l5.8-2.56c3.21-1.42,6.45-2.89,9.58-4.32l4.33-2,6.72-3.05Zm-180,182.72a88.15,88.15,0,1,1,40.38-54.21,87.66,87.66,0,0,1-40.38,54.21Z" transform="translate(-8.68 -8.46)"/><path class="cls-2" d="M157.83,38.08l67.88-19.25c5.21,13,10.24,25.54,15.28,38.1,2.26,5.62,4.38,11.31,6.89,16.82a5.09,5.09,0,0,0,3.74,2.47c17.13.24,34.09,1.63,50.83,5.55,1.31.31,3.69-1.21,4.64-2.54,9.81-13.77,19.42-27.68,29.1-41.55,1.08-1.54,2.21-3.06,3.57-5l61.76,34.32c-.53,1.47-.94,2.8-1.48,4.08-6.4,15.14-12.72,30.32-19.32,45.37-1.4,3.19-.82,5.17,1.37,7.56a193.17,193.17,0,0,1,29.22,40.74c2.26,4.3,4.56,4.87,8.92,4,16.62-3.11,33.31-5.81,50-8.66,1.25-.22,2.49-.4,4.42-.71,6.12,22,12.21,43.89,18.48,66.41-4.65,2.11-9.22,4.23-13.83,6.26-13.14,5.8-26.27,11.62-39.46,17.28-2.74,1.18-3.65,2.67-3.63,5.72.14,15.87-1.43,31.58-6,46.83-.89,3,.09,4.23,2.3,5.75,13.39,9.23,26.71,18.57,40,27.89,1.95,1.36,3.88,2.75,6.36,4.52l-33.13,62.25L412.8,388.65c-6.63-2.77-13.2-5.68-19.92-8.19a6.2,6.2,0,0,0-5,.71c-13.43,9.73-26.64,19.76-40.11,29.43-2.65,1.9-3.23,3.59-2.72,6.65,3.12,18.86,6.05,37.75,9.13,57.19l-68.71,18.41c-4-9.68-8-19.06-11.87-28.46-3.54-8.55-6.91-17.17-10.69-25.61-.61-1.37-2.84-2.66-4.46-2.85-15-1.71-30.09-3-45.1-4.87-3.18-.39-4.82.08-6.61,2.69C197,448,187.05,462,177.18,476.14c-1,1.4-2,2.79-3.21,4.51l-63.12-33.42c5-12,9.85-23.79,14.73-35.54,2.63-6.34,5.24-12.68,8-19,1.05-2.41,1-3.93-1-6.26-10.31-12.36-20.34-25-30.21-37.68-1.94-2.51-3.57-3.3-6.69-2.78-17.77,2.94-35.59,5.65-53.39,8.44-1.54.23-3.08.4-4.94.64L19,286.67c10.25-4,20.18-7.84,30.12-11.67,7.6-2.92,15.19-5.85,22.82-8.67,2.51-.93,3.47-2.21,3.75-5.15q2.25-24,5.32-48c.37-2.94,0-4.58-2.46-6.29-14.38-10-28.66-20.22-43-30.37-1.28-.91-2.52-1.88-4.14-3.09l31.66-59.07c4.39,1.54,8.71,3,13,4.57,13.81,5,27.65,9.9,41.41,15,2.77,1,4.45.51,6.74-1.39q19.49-16.16,39.44-31.76c2.49-1.94,3.47-3.44,2.94-6.6-2.82-17-5.4-34-8.06-51C158.31,41.64,158.12,40.07,157.83,38.08ZM305.27,339.91A97.08,97.08,0,1,0,172.2,306,96.79,96.79,0,0,0,305.27,339.91Z" transform="translate(-8.68 -8.46)"/></svg>