<svg id="Layer_1" data-name="Layer 1" xmlns="http://www.w3.org/2000/svg" width="45.78" height="48.13" viewBox="0 0 45.78 48.13"><defs><style>.cls-1{fill:#ff6;stroke:#000;stroke-miterlimit:10;stroke-width:0.25px;}</style></defs><title>sun</title><circle class="cls-1" cx="22.89" cy="24.07" r="13.45"/><polygon class="cls-1" points="22.89 0.28 22.89 0.28 26.58 7.8 19.19 7.8 22.89 0.28"/><polygon class="cls-1" points="8.91 4.83 8.91 4.83 16.32 8.74 10.34 13.08 8.91 4.83"/><polygon class="cls-1" points="0.27 16.72 0.27 16.72 8.56 15.53 6.28 22.56 0.27 16.72"/><polygon class="cls-1" points="0.27 31.41 0.27 31.41 6.28 25.58 8.56 32.61 0.27 31.41"/><polygon class="cls-1" points="8.91 43.31 8.91 43.31 10.34 35.05 16.32 39.39 8.91 43.31"/><polygon class="cls-1" points="22.89 47.85 22.89 47.85 19.19 40.33 26.58 40.33 22.89 47.85"/><polygon class="cls-1" points="36.87 43.31 36.87 43.31 29.46 39.39 35.44 35.05 36.87 43.31"/><polygon class="cls-1" points="45.51 31.41 45.51 31.41 37.21 32.61 39.49 25.58 45.51 31.41"/><polygon class="cls-1" points="45.51 16.72 45.51 16.72 39.49 22.56 37.21 15.53 45.51 16.72"/><polygon class="cls-1" points="36.87 4.83 36.87 4.83 35.44 13.08 29.46 8.74 36.87 4.83"/></svg>